<?xml version="1.0" encoding="UTF-8"?>
<svg version="1.1" xmlns="http://www.w3.org/2000/svg" width="3000" height="3000">
<path d="M0 0 C41.58 0 83.16 0 126 0 C126 19.8 126 39.6 126 60 C143.82 60 161.64 60 180 60 C180 77.82 180 95.64 180 114 C197.82 114 215.64 114 234 114 C234 133.8 234 153.6 234 174 C251.82 174 269.64 174 288 174 C288 195.78 288 217.56 288 240 C303.84 240 319.68 240 336 240 C336 259.8 336 279.6 336 300 C543.9 300 751.8 300 966 300 C966 321.78 966 343.56 966 366 C983.82 366 1001.64 366 1020 366 C1020 466.98 1020 567.96 1020 672 C1006.14 672 992.28 672 978 672 C978 687.84 978 703.68 978 720 C958.2 720 938.4 720 918 720 C918 741.78 918 763.56 918 786 C896.22 786 874.44 786 852 786 C852 805.8 852 825.6 852 846 C869.82 846 887.64 846 906 846 C906 863.82 906 881.64 906 900 C925.8 900 945.6 900 966 900 C966 917.82 966 935.64 966 954 C985.8 954 1005.6 954 1026 954 C1026 973.8 1026 993.6 1026 1014 C1043.82 1014 1061.64 1014 1080 1014 C1080 1031.82 1080 1049.64 1080 1068 C1099.8 1068 1119.6 1068 1140 1068 C1140 1087.8 1140 1107.6 1140 1128 C1159.8 1128 1179.6 1128 1200 1128 C1200 1145.82 1200 1163.64 1200 1182 C1217.82 1182 1235.64 1182 1254 1182 C1254 1201.8 1254 1221.6 1254 1242 C1271.82 1242 1289.64 1242 1308 1242 C1308 1267.74 1308 1293.48 1308 1320 C1292.16 1320 1276.32 1320 1260 1320 C1260 1337.82 1260 1355.64 1260 1374 C1242.18 1374 1224.36 1374 1206 1374 C1206 1393.8 1206 1413.6 1206 1434 C1186.2 1434 1166.4 1434 1146 1434 C1146 1451.82 1146 1469.64 1146 1488 C1128.18 1488 1110.36 1488 1092 1488 C1092 1507.8 1092 1527.6 1092 1548 C1072.2 1548 1052.4 1548 1032 1548 C1032 1565.82 1032 1583.64 1032 1602 C1014.18 1602 996.36 1602 978 1602 C978 1621.8 978 1641.6 978 1662 C960.18 1662 942.36 1662 924 1662 C924 1679.82 924 1697.64 924 1716 C906.18 1716 888.36 1716 870 1716 C870 1733.82 870 1751.64 870 1770 C852.18 1770 834.36 1770 816 1770 C816 1789.8 816 1809.6 816 1830 C798.18 1830 780.36 1830 762 1830 C762 1849.8 762 1869.6 762 1890 C742.2 1890 722.4 1890 702 1890 C702 1907.82 702 1925.64 702 1944 C684.18 1944 666.36 1944 648 1944 C648 1961.82 648 1979.64 648 1998 C628.2 1998 608.4 1998 588 1998 C588 2017.8 588 2037.6 588 2058 C568.2 2058 548.4 2058 528 2058 C528 2075.82 528 2093.64 528 2112 C510.18 2112 492.36 2112 474 2112 C474 2127.84 474 2143.68 474 2160 C458.16 2160 442.32 2160 426 2160 C426 2177.82 426 2195.64 426 2214 C406.2 2214 386.4 2214 366 2214 C366 2231.82 366 2249.64 366 2268 C348.18 2268 330.36 2268 312 2268 C312 2285.82 312 2303.64 312 2322 C292.2 2322 272.4 2322 252 2322 C252 2341.8 252 2361.6 252 2382 C234.18 2382 216.36 2382 198 2382 C198 2399.82 198 2417.64 198 2436 C180.18 2436 162.36 2436 144 2436 C144 2455.8 144 2475.6 144 2496 C124.2 2496 104.4 2496 84 2496 C84 2515.8 84 2535.6 84 2556 C66.18 2556 48.36 2556 30 2556 C30 2536.2 30 2516.4 30 2496 C10.2 2496 -9.6 2496 -30 2496 C-30 2478.18 -30 2460.36 -30 2442 C-49.8 2442 -69.6 2442 -90 2442 C-90 2424.18 -90 2406.36 -90 2388 C-109.8 2388 -129.6 2388 -150 2388 C-150 2368.2 -150 2348.4 -150 2328 C-167.82 2328 -185.64 2328 -204 2328 C-204 2310.18 -204 2292.36 -204 2274 C-223.8 2274 -243.6 2274 -264 2274 C-264 2256.18 -264 2238.36 -264 2220 C-281.82 2220 -299.64 2220 -318 2220 C-318 2202.18 -318 2184.36 -318 2166 C-444.72 2166 -571.44 2166 -702 2166 C-702 2136.3 -702 2106.6 -702 2076 C-723.78 2076 -745.56 2076 -768 2076 C-768 1977 -768 1878 -768 1776 C-750.18 1776 -732.36 1776 -714 1776 C-714 1760.16 -714 1744.32 -714 1728 C-735.78 1728 -757.56 1728 -780 1728 C-780 1708.2 -780 1688.4 -780 1668 C-797.82 1668 -815.64 1668 -834 1668 C-834 1650.18 -834 1632.36 -834 1614 C-851.82 1614 -869.64 1614 -888 1614 C-888 1594.2 -888 1574.4 -888 1554 C-903.84 1554 -919.68 1554 -936 1554 C-936 1534.2 -936 1514.4 -936 1494 C-953.82 1494 -971.64 1494 -990 1494 C-990 1474.2 -990 1454.4 -990 1434 C-1007.82 1434 -1025.64 1434 -1044 1434 C-1044 1416.18 -1044 1398.36 -1044 1380 C-1061.82 1380 -1079.64 1380 -1098 1380 C-1098 1362.18 -1098 1344.36 -1098 1326 C-1115.82 1326 -1133.64 1326 -1152 1326 C-1152 1300.26 -1152 1274.52 -1152 1248 C-1134.18 1248 -1116.36 1248 -1098 1248 C-1098 1228.2 -1098 1208.4 -1098 1188 C-1080.18 1188 -1062.36 1188 -1044 1188 C-1044 1168.2 -1044 1148.4 -1044 1128 C-1024.2 1128 -1004.4 1128 -984 1128 C-984 1110.18 -984 1092.36 -984 1074 C-966.18 1074 -948.36 1074 -930 1074 C-930 1054.2 -930 1034.4 -930 1014 C-910.2 1014 -890.4 1014 -870 1014 C-870 996.18 -870 978.36 -870 960 C-852.18 960 -834.36 960 -816 960 C-816 940.2 -816 920.4 -816 900 C-796.2 900 -776.4 900 -756 900 C-756 888.12 -756 876.24 -756 864 C-773.82 864 -791.64 864 -810 864 C-810 717.48 -810 570.96 -810 420 C-792.18 420 -774.36 420 -756 420 C-756 402.18 -756 384.36 -756 366 C-738.18 366 -720.36 366 -702 366 C-702 344.22 -702 322.44 -702 300 C-541.62 300 -381.24 300 -216 300 C-216 280.2 -216 260.4 -216 240 C-198.18 240 -180.36 240 -162 240 C-162 220.2 -162 200.4 -162 180 C-144.18 180 -126.36 180 -108 180 C-108 160.2 -108 140.4 -108 120 C-90.18 120 -72.36 120 -54 120 C-54 100.2 -54 80.4 -54 60 C-36.18 60 -18.36 60 0 60 C0 40.2 0 20.4 0 0 Z " fill="#000000" transform="translate(1458,234)"/>
<path d="M0 0 C496.98 0 993.96 0 1506 0 C1506 13.86 1506 27.72 1506 42 C1525.8 42 1545.6 42 1566 42 C1566 101.4 1566 160.8 1566 222 C1546.2 222 1526.4 222 1506 222 C1506 241.8 1506 261.6 1506 282 C1319.88 282 1133.76 282 942 282 C942 295.86 942 309.72 942 324 C934.08 324 926.16 324 918 324 C918 327.96 918 331.92 918 336 C916.02 336 914.04 336 912 336 C912 345.9 912 355.8 912 366 C910.02 366 908.04 366 906 366 C906 373.92 906 381.84 906 390 C904.02 390 902.04 390 900 390 C900 399.9 900 409.8 900 420 C898.02 420 896.04 420 894 420 C894 429.9 894 439.8 894 450 C892.02 450 890.04 450 888 450 C888 459.9 888 469.8 888 480 C886.02 480 884.04 480 882 480 C882 489.9 882 499.8 882 510 C880.02 510 878.04 510 876 510 C876 517.92 876 525.84 876 534 C874.02 534 872.04 534 870 534 C870 543.9 870 553.8 870 564 C868.02 564 866.04 564 864 564 C864 573.9 864 583.8 864 594 C862.02 594 860.04 594 858 594 C858 603.9 858 613.8 858 624 C856.02 624 854.04 624 852 624 C852 631.92 852 639.84 852 648 C850.02 648 848.04 648 846 648 C846 657.9 846 667.8 846 678 C844.02 678 842.04 678 840 678 C840 687.9 840 697.8 840 708 C838.02 708 836.04 708 834 708 C834 717.9 834 727.8 834 738 C832.02 738 830.04 738 828 738 C828 747.9 828 757.8 828 768 C826.02 768 824.04 768 822 768 C822 775.92 822 783.84 822 792 C820.02 792 818.04 792 816 792 C816 801.9 816 811.8 816 822 C814.02 822 812.04 822 810 822 C810 831.9 810 841.8 810 852 C808.02 852 806.04 852 804 852 C804 861.9 804 871.8 804 882 C802.02 882 800.04 882 798 882 C798 889.92 798 897.84 798 906 C796.02 906 794.04 906 792 906 C792 915.9 792 925.8 792 936 C790.02 936 788.04 936 786 936 C786 945.9 786 955.8 786 966 C784.02 966 782.04 966 780 966 C780 975.9 780 985.8 780 996 C778.02 996 776.04 996 774 996 C774 1005.9 774 1015.8 774 1026 C772.02 1026 770.04 1026 768 1026 C768 1033.92 768 1041.84 768 1050 C766.02 1050 764.04 1050 762 1050 C762 1059.9 762 1069.8 762 1080 C760.02 1080 758.04 1080 756 1080 C756 1089.9 756 1099.8 756 1110 C754.02 1110 752.04 1110 750 1110 C750 1119.9 750 1129.8 750 1140 C748.02 1140 746.04 1140 744 1140 C744 1147.92 744 1155.84 744 1164 C742.02 1164 740.04 1164 738 1164 C738 1173.9 738 1183.8 738 1194 C736.02 1194 734.04 1194 732 1194 C732 1203.9 732 1213.8 732 1224 C730.02 1224 728.04 1224 726 1224 C726 1233.9 726 1243.8 726 1254 C724.02 1254 722.04 1254 720 1254 C720 1263.9 720 1273.8 720 1284 C718.02 1284 716.04 1284 714 1284 C714 1291.92 714 1299.84 714 1308 C712.02 1308 710.04 1308 708 1308 C708 1315.92 708 1323.84 708 1332 C706.02 1332 704.04 1332 702 1332 C702 1339.92 702 1347.84 702 1356 C700.02 1356 698.04 1356 696 1356 C696 1365.9 696 1375.8 696 1386 C694.02 1386 692.04 1386 690 1386 C690 1389.96 690 1393.92 690 1398 C707.82 1398 725.64 1398 744 1398 C744 1386.12 744 1374.24 744 1362 C783.6 1362 823.2 1362 864 1362 C864 1413.48 864 1464.96 864 1518 C844.2 1518 824.4 1518 804 1518 C804 1537.8 804 1557.6 804 1578 C788.16 1578 772.32 1578 756 1578 C756 1595.82 756 1613.64 756 1632 C738.18 1632 720.36 1632 702 1632 C702 1649.82 702 1667.64 702 1686 C480.24 1686 258.48 1686 30 1686 C30 1664.22 30 1642.44 30 1620 C12.18 1620 -5.64 1620 -24 1620 C-24 1564.56 -24 1509.12 -24 1452 C-6.18 1452 11.64 1452 30 1452 C30 1434.18 30 1416.36 30 1398 C73.56 1398 117.12 1398 162 1398 C162 1392.06 162 1386.12 162 1380 C163.98 1380 165.96 1380 168 1380 C168 1370.1 168 1360.2 168 1350 C169.98 1350 171.96 1350 174 1350 C174 1340.1 174 1330.2 174 1320 C175.98 1320 177.96 1320 180 1320 C180 1310.1 180 1300.2 180 1290 C181.98 1290 183.96 1290 186 1290 C186 1280.1 186 1270.2 186 1260 C187.98 1260 189.96 1260 192 1260 C192 1250.1 192 1240.2 192 1230 C193.98 1230 195.96 1230 198 1230 C198 1220.1 198 1210.2 198 1200 C199.98 1200 201.96 1200 204 1200 C204 1190.1 204 1180.2 204 1170 C205.98 1170 207.96 1170 210 1170 C210 1160.1 210 1150.2 210 1140 C211.98 1140 213.96 1140 216 1140 C216 1130.1 216 1120.2 216 1110 C217.98 1110 219.96 1110 222 1110 C222 1100.1 222 1090.2 222 1080 C223.98 1080 225.96 1080 228 1080 C228 1070.1 228 1060.2 228 1050 C229.98 1050 231.96 1050 234 1050 C234 1040.1 234 1030.2 234 1020 C235.98 1020 237.96 1020 240 1020 C240 1010.1 240 1000.2 240 990 C241.98 990 243.96 990 246 990 C246 980.1 246 970.2 246 960 C247.98 960 249.96 960 252 960 C252 950.1 252 940.2 252 930 C253.98 930 255.96 930 258 930 C258 920.1 258 910.2 258 900 C259.98 900 261.96 900 264 900 C264 890.1 264 880.2 264 870 C265.98 870 267.96 870 270 870 C270 860.1 270 850.2 270 840 C271.98 840 273.96 840 276 840 C276 830.1 276 820.2 276 810 C277.98 810 279.96 810 282 810 C282 800.1 282 790.2 282 780 C283.98 780 285.96 780 288 780 C288 770.1 288 760.2 288 750 C289.98 750 291.96 750 294 750 C294 740.1 294 730.2 294 720 C295.98 720 297.96 720 300 720 C300 710.1 300 700.2 300 690 C301.98 690 303.96 690 306 690 C306 680.1 306 670.2 306 660 C307.98 660 309.96 660 312 660 C312 650.1 312 640.2 312 630 C313.98 630 315.96 630 318 630 C318 620.1 318 610.2 318 600 C319.98 600 321.96 600 324 600 C324 590.1 324 580.2 324 570 C325.98 570 327.96 570 330 570 C330 560.1 330 550.2 330 540 C331.98 540 333.96 540 336 540 C336 530.1 336 520.2 336 510 C337.98 510 339.96 510 342 510 C342 500.1 342 490.2 342 480 C343.98 480 345.96 480 348 480 C348 470.1 348 460.2 348 450 C349.98 450 351.96 450 354 450 C354 440.1 354 430.2 354 420 C355.98 420 357.96 420 360 420 C360 410.1 360 400.2 360 390 C361.98 390 363.96 390 366 390 C366 380.1 366 370.2 366 360 C367.98 360 369.96 360 372 360 C372 348.12 372 336.24 372 324 C373.98 324 375.96 324 378 324 C378 312.12 378 300.24 378 288 C304.74 288 231.48 288 156 288 C156 301.86 156 315.72 156 330 C142.14 330 128.28 330 114 330 C114 353.76 114 377.52 114 402 C56.58 402 -0.84 402 -60 402 C-60 285.18 -60 168.36 -60 48 C-40.2 48 -20.4 48 0 48 C0 32.16 0 16.32 0 0 Z " fill="#B1B6B9" transform="translate(810,612)"/>
<path d="M0 0 C120.78 0 241.56 0 366 0 C366 19.8 366 39.6 366 60 C383.82 60 401.64 60 420 60 C420 79.8 420 99.6 420 120 C439.8 120 459.6 120 480 120 C480 137.82 480 155.64 480 174 C497.82 174 515.64 174 534 174 C534 191.82 534 209.64 534 228 C551.82 228 569.64 228 588 228 C588 247.8 588 267.6 588 288 C607.8 288 627.6 288 648 288 C648 305.82 648 323.64 648 342 C667.8 342 687.6 342 708 342 C708 361.8 708 381.6 708 402 C727.8 402 747.6 402 768 402 C768 419.82 768 437.64 768 456 C787.8 456 807.6 456 828 456 C828 481.74 828 507.48 828 534 C808.2 534 788.4 534 768 534 C768 551.82 768 569.64 768 588 C748.2 588 728.4 588 708 588 C708 605.82 708 623.64 708 642 C690.18 642 672.36 642 654 642 C654 661.8 654 681.6 654 702 C636.18 702 618.36 702 600 702 C600 719.82 600 737.64 600 756 C580.2 756 560.4 756 540 756 C540 773.82 540 791.64 540 810 C522.18 810 504.36 810 486 810 C486 829.8 486 849.6 486 870 C466.2 870 446.4 870 426 870 C426 887.82 426 905.64 426 924 C408.18 924 390.36 924 372 924 C372 943.8 372 963.6 372 984 C352.2 984 332.4 984 312 984 C312 1001.82 312 1019.64 312 1038 C292.2 1038 272.4 1038 252 1038 C252 1057.8 252 1077.6 252 1098 C234.18 1098 216.36 1098 198 1098 C198 1115.82 198 1133.64 198 1152 C178.2 1152 158.4 1152 138 1152 C138 1169.82 138 1187.64 138 1206 C120.18 1206 102.36 1206 84 1206 C84 1223.82 84 1241.64 84 1260 C64.2 1260 44.4 1260 24 1260 C24 1279.8 24 1299.6 24 1320 C12.12 1320 0.24 1320 -12 1320 C-12 1337.82 -12 1355.64 -12 1374 C-29.82 1374 -47.64 1374 -66 1374 C-66 1389.84 -66 1405.68 -66 1422 C-87.78 1422 -109.56 1422 -132 1422 C-132 1439.82 -132 1457.64 -132 1476 C-151.8 1476 -171.6 1476 -192 1476 C-192 1495.8 -192 1515.6 -192 1536 C-207.84 1536 -223.68 1536 -240 1536 C-240 1553.82 -240 1571.64 -240 1590 C-255.84 1590 -271.68 1590 -288 1590 C-288 1613.76 -288 1637.52 -288 1662 C-305.82 1662 -323.64 1662 -342 1662 C-342 1640.22 -342 1618.44 -342 1596 C-361.8 1596 -381.6 1596 -402 1596 C-402 1578.18 -402 1560.36 -402 1542 C-419.82 1542 -437.64 1542 -456 1542 C-456 1522.2 -456 1502.4 -456 1482 C-475.8 1482 -495.6 1482 -516 1482 C-516 1464.18 -516 1446.36 -516 1428 C-533.82 1428 -551.64 1428 -570 1428 C-570 1412.16 -570 1396.32 -570 1380 C-461.1 1380 -352.2 1380 -240 1380 C-240 1368.12 -240 1356.24 -240 1344 C-226.14 1344 -212.28 1344 -198 1344 C-198 1324.2 -198 1304.4 -198 1284 C-180.18 1284 -162.36 1284 -144 1284 C-144 1264.2 -144 1244.4 -144 1224 C-126.18 1224 -108.36 1224 -90 1224 C-90 1204.2 -90 1184.4 -90 1164 C-72.18 1164 -54.36 1164 -36 1164 C-36 1084.8 -36 1005.6 -36 924 C-63.72 924 -91.44 924 -120 924 C-120 898.26 -120 872.52 -120 846 C-139.8 846 -159.6 846 -180 846 C-180 830.16 -180 814.32 -180 798 C-178.02 798 -176.04 798 -174 798 C-174 790.08 -174 782.16 -174 774 C-172.02 774 -170.04 774 -168 774 C-168 764.1 -168 754.2 -168 744 C-166.02 744 -164.04 744 -162 744 C-162 734.1 -162 724.2 -162 714 C-160.02 714 -158.04 714 -156 714 C-156 706.08 -156 698.16 -156 690 C-154.02 690 -152.04 690 -150 690 C-150 680.1 -150 670.2 -150 660 C-148.02 660 -146.04 660 -144 660 C-144 652.08 -144 644.16 -144 636 C-142.02 636 -140.04 636 -138 636 C-138 626.1 -138 616.2 -138 606 C-136.02 606 -134.04 606 -132 606 C-132 598.08 -132 590.16 -132 582 C-130.02 582 -128.04 582 -126 582 C-126 572.1 -126 562.2 -126 552 C-124.02 552 -122.04 552 -120 552 C-120 542.1 -120 532.2 -120 522 C-118.02 522 -116.04 522 -114 522 C-114 514.08 -114 506.16 -114 498 C-112.02 498 -110.04 498 -108 498 C-108 488.1 -108 478.2 -108 468 C-106.02 468 -104.04 468 -102 468 C-102 460.08 -102 452.16 -102 444 C-100.02 444 -98.04 444 -96 444 C-96 434.1 -96 424.2 -96 414 C-94.02 414 -92.04 414 -90 414 C-90 406.08 -90 398.16 -90 390 C-88.02 390 -86.04 390 -84 390 C-84 380.1 -84 370.2 -84 360 C-82.02 360 -80.04 360 -78 360 C-78 352.08 -78 344.16 -78 336 C-76.02 336 -74.04 336 -72 336 C-72 326.1 -72 316.2 -72 306 C-70.02 306 -68.04 306 -66 306 C-66 296.1 -66 286.2 -66 276 C-64.02 276 -62.04 276 -60 276 C-60 268.08 -60 260.16 -60 252 C-58.02 252 -56.04 252 -54 252 C-54 242.1 -54 232.2 -54 222 C-52.02 222 -50.04 222 -48 222 C-48 214.08 -48 206.16 -48 198 C-46.02 198 -44.04 198 -42 198 C-42 188.1 -42 178.2 -42 168 C-40.02 168 -38.04 168 -36 168 C-36 160.08 -36 152.16 -36 144 C-34.02 144 -32.04 144 -30 144 C-30 134.1 -30 124.2 -30 114 C-28.02 114 -26.04 114 -24 114 C-24 104.1 -24 94.2 -24 84 C-22.02 84 -20.04 84 -18 84 C-18 76.08 -18 68.16 -18 60 C-16.02 60 -14.04 60 -12 60 C-12 50.1 -12 40.2 -12 30 C-10.02 30 -8.04 30 -6 30 C-6 22.08 -6 14.16 -6 6 C-4.02 6 -2.04 6 0 6 C0 4.02 0 2.04 0 0 Z " fill="#2A782D" transform="translate(1830,1020)"/>
<path d="M0 0 C15.84 0 31.68 0 48 0 C48 15.84 48 31.68 48 48 C46.02 48 44.04 48 42 48 C42 55.92 42 63.84 42 72 C40.02 72 38.04 72 36 72 C36 81.9 36 91.8 36 102 C34.02 102 32.04 102 30 102 C30 111.9 30 121.8 30 132 C28.02 132 26.04 132 24 132 C24 139.92 24 147.84 24 156 C22.02 156 20.04 156 18 156 C18 165.9 18 175.8 18 186 C16.02 186 14.04 186 12 186 C12 195.9 12 205.8 12 216 C10.02 216 8.04 216 6 216 C6 223.92 6 231.84 6 240 C4.02 240 2.04 240 0 240 C0 249.9 0 259.8 0 270 C-1.98 270 -3.96 270 -6 270 C-6 279.9 -6 289.8 -6 300 C-7.98 300 -9.96 300 -12 300 C-12 307.92 -12 315.84 -12 324 C-13.98 324 -15.96 324 -18 324 C-18 333.9 -18 343.8 -18 354 C-19.98 354 -21.96 354 -24 354 C-24 361.92 -24 369.84 -24 378 C-25.98 378 -27.96 378 -30 378 C-30 387.9 -30 397.8 -30 408 C-31.98 408 -33.96 408 -36 408 C-36 417.9 -36 427.8 -36 438 C-37.98 438 -39.96 438 -42 438 C-42 447.9 -42 457.8 -42 468 C-43.98 468 -45.96 468 -48 468 C-48 475.92 -48 483.84 -48 492 C-49.98 492 -51.96 492 -54 492 C-54 501.9 -54 511.8 -54 522 C-55.98 522 -57.96 522 -60 522 C-60 529.92 -60 537.84 -60 546 C-61.98 546 -63.96 546 -66 546 C-66 555.9 -66 565.8 -66 576 C-67.98 576 -69.96 576 -72 576 C-72 583.92 -72 591.84 -72 600 C-73.98 600 -75.96 600 -78 600 C-78 609.9 -78 619.8 -78 630 C-79.98 630 -81.96 630 -84 630 C-84 639.9 -84 649.8 -84 660 C-85.98 660 -87.96 660 -90 660 C-90 667.92 -90 675.84 -90 684 C-91.98 684 -93.96 684 -96 684 C-96 693.9 -96 703.8 -96 714 C-97.98 714 -99.96 714 -102 714 C-102 723.9 -102 733.8 -102 744 C-103.98 744 -105.96 744 -108 744 C-108 751.92 -108 759.84 -108 768 C-109.98 768 -111.96 768 -114 768 C-114 777.9 -114 787.8 -114 798 C-115.98 798 -117.96 798 -120 798 C-120 807.9 -120 817.8 -120 828 C-121.98 828 -123.96 828 -126 828 C-126 835.92 -126 843.84 -126 852 C-127.98 852 -129.96 852 -132 852 C-132 859.92 -132 867.84 -132 876 C-183.48 876 -234.96 876 -288 876 C-288 858.18 -288 840.36 -288 822 C-305.82 822 -323.64 822 -342 822 C-342 802.2 -342 782.4 -342 762 C-359.82 762 -377.64 762 -396 762 C-396 742.2 -396 722.4 -396 702 C-413.82 702 -431.64 702 -450 702 C-450 682.2 -450 662.4 -450 642 C-467.82 642 -485.64 642 -504 642 C-504 622.2 -504 602.4 -504 582 C-523.8 582 -543.6 582 -564 582 C-564 566.16 -564 550.32 -564 534 C-581.82 534 -599.64 534 -618 534 C-618 508.26 -618 482.52 -618 456 C-600.18 456 -582.36 456 -564 456 C-564 436.2 -564 416.4 -564 396 C-544.2 396 -524.4 396 -504 396 C-504 376.2 -504 356.4 -504 336 C-486.18 336 -468.36 336 -450 336 C-450 318.18 -450 300.36 -450 282 C-430.2 282 -410.4 282 -390 282 C-390 262.2 -390 242.4 -390 222 C-370.2 222 -350.4 222 -330 222 C-330 204.18 -330 186.36 -330 168 C-310.2 168 -290.4 168 -270 168 C-270 150.18 -270 132.36 -270 114 C-200.7 114 -131.4 114 -60 114 C-60 94.2 -60 74.4 -60 54 C-40.2 54 -20.4 54 0 54 C0 36.18 0 18.36 0 0 Z " fill="#2B792D" transform="translate(1038,1026)"/>
<path d="M0 0 C19.8 0 39.6 0 60 0 C60 59.4 60 118.8 60 180 C40.2 180 20.4 180 0 180 C0 199.8 0 219.6 0 240 C-186.12 240 -372.24 240 -564 240 C-564 253.86 -564 267.72 -564 282 C-571.92 282 -579.84 282 -588 282 C-588 285.96 -588 289.92 -588 294 C-589.98 294 -591.96 294 -594 294 C-594 303.9 -594 313.8 -594 324 C-595.98 324 -597.96 324 -600 324 C-600 331.92 -600 339.84 -600 348 C-601.98 348 -603.96 348 -606 348 C-606 357.9 -606 367.8 -606 378 C-607.98 378 -609.96 378 -612 378 C-612 387.9 -612 397.8 -612 408 C-613.98 408 -615.96 408 -618 408 C-618 417.9 -618 427.8 -618 438 C-619.98 438 -621.96 438 -624 438 C-624 447.9 -624 457.8 -624 468 C-625.98 468 -627.96 468 -630 468 C-630 475.92 -630 483.84 -630 492 C-631.98 492 -633.96 492 -636 492 C-636 501.9 -636 511.8 -636 522 C-637.98 522 -639.96 522 -642 522 C-642 531.9 -642 541.8 -642 552 C-643.98 552 -645.96 552 -648 552 C-648 561.9 -648 571.8 -648 582 C-649.98 582 -651.96 582 -654 582 C-654 589.92 -654 597.84 -654 606 C-655.98 606 -657.96 606 -660 606 C-660 615.9 -660 625.8 -660 636 C-661.98 636 -663.96 636 -666 636 C-666 645.9 -666 655.8 -666 666 C-667.98 666 -669.96 666 -672 666 C-672 675.9 -672 685.8 -672 696 C-673.98 696 -675.96 696 -678 696 C-678 705.9 -678 715.8 -678 726 C-679.98 726 -681.96 726 -684 726 C-684 733.92 -684 741.84 -684 750 C-685.98 750 -687.96 750 -690 750 C-690 759.9 -690 769.8 -690 780 C-691.98 780 -693.96 780 -696 780 C-696 789.9 -696 799.8 -696 810 C-697.98 810 -699.96 810 -702 810 C-702 819.9 -702 829.8 -702 840 C-703.98 840 -705.96 840 -708 840 C-708 847.92 -708 855.84 -708 864 C-709.98 864 -711.96 864 -714 864 C-714 873.9 -714 883.8 -714 894 C-715.98 894 -717.96 894 -720 894 C-720 903.9 -720 913.8 -720 924 C-721.98 924 -723.96 924 -726 924 C-726 933.9 -726 943.8 -726 954 C-727.98 954 -729.96 954 -732 954 C-732 963.9 -732 973.8 -732 984 C-733.98 984 -735.96 984 -738 984 C-738 991.92 -738 999.84 -738 1008 C-739.98 1008 -741.96 1008 -744 1008 C-744 1017.9 -744 1027.8 -744 1038 C-745.98 1038 -747.96 1038 -750 1038 C-750 1047.9 -750 1057.8 -750 1068 C-751.98 1068 -753.96 1068 -756 1068 C-756 1077.9 -756 1087.8 -756 1098 C-757.98 1098 -759.96 1098 -762 1098 C-762 1105.92 -762 1113.84 -762 1122 C-763.98 1122 -765.96 1122 -768 1122 C-768 1131.9 -768 1141.8 -768 1152 C-769.98 1152 -771.96 1152 -774 1152 C-774 1161.9 -774 1171.8 -774 1182 C-775.98 1182 -777.96 1182 -780 1182 C-780 1191.9 -780 1201.8 -780 1212 C-781.98 1212 -783.96 1212 -786 1212 C-786 1221.9 -786 1231.8 -786 1242 C-787.98 1242 -789.96 1242 -792 1242 C-792 1249.92 -792 1257.84 -792 1266 C-793.98 1266 -795.96 1266 -798 1266 C-798 1273.92 -798 1281.84 -798 1290 C-799.98 1290 -801.96 1290 -804 1290 C-804 1297.92 -804 1305.84 -804 1314 C-805.98 1314 -807.96 1314 -810 1314 C-810 1323.9 -810 1333.8 -810 1344 C-811.98 1344 -813.96 1344 -816 1344 C-816 1347.96 -816 1351.92 -816 1356 C-839.76 1356 -863.52 1356 -888 1356 C-888 1352.04 -888 1348.08 -888 1344 C-886.02 1344 -884.04 1344 -882 1344 C-882 1336.08 -882 1328.16 -882 1320 C-880.02 1320 -878.04 1320 -876 1320 C-876 1310.1 -876 1300.2 -876 1290 C-874.02 1290 -872.04 1290 -870 1290 C-870 1282.08 -870 1274.16 -870 1266 C-868.02 1266 -866.04 1266 -864 1266 C-864 1256.1 -864 1246.2 -864 1236 C-862.02 1236 -860.04 1236 -858 1236 C-858 1226.1 -858 1216.2 -858 1206 C-856.02 1206 -854.04 1206 -852 1206 C-852 1198.08 -852 1190.16 -852 1182 C-850.02 1182 -848.04 1182 -846 1182 C-846 1172.1 -846 1162.2 -846 1152 C-844.02 1152 -842.04 1152 -840 1152 C-840 1142.1 -840 1132.2 -840 1122 C-838.02 1122 -836.04 1122 -834 1122 C-834 1114.08 -834 1106.16 -834 1098 C-832.02 1098 -830.04 1098 -828 1098 C-828 1088.1 -828 1078.2 -828 1068 C-826.02 1068 -824.04 1068 -822 1068 C-822 1058.1 -822 1048.2 -822 1038 C-820.02 1038 -818.04 1038 -816 1038 C-816 1030.08 -816 1022.16 -816 1014 C-814.02 1014 -812.04 1014 -810 1014 C-810 1004.1 -810 994.2 -810 984 C-808.02 984 -806.04 984 -804 984 C-804 976.08 -804 968.16 -804 960 C-802.02 960 -800.04 960 -798 960 C-798 950.1 -798 940.2 -798 930 C-796.02 930 -794.04 930 -792 930 C-792 920.1 -792 910.2 -792 900 C-790.02 900 -788.04 900 -786 900 C-786 892.08 -786 884.16 -786 876 C-784.02 876 -782.04 876 -780 876 C-780 866.1 -780 856.2 -780 846 C-778.02 846 -776.04 846 -774 846 C-774 836.1 -774 826.2 -774 816 C-772.02 816 -770.04 816 -768 816 C-768 808.08 -768 800.16 -768 792 C-766.02 792 -764.04 792 -762 792 C-762 782.1 -762 772.2 -762 762 C-760.02 762 -758.04 762 -756 762 C-756 754.08 -756 746.16 -756 738 C-754.02 738 -752.04 738 -750 738 C-750 728.1 -750 718.2 -750 708 C-748.02 708 -746.04 708 -744 708 C-744 698.1 -744 688.2 -744 678 C-742.02 678 -740.04 678 -738 678 C-738 670.08 -738 662.16 -738 654 C-736.02 654 -734.04 654 -732 654 C-732 644.1 -732 634.2 -732 624 C-730.02 624 -728.04 624 -726 624 C-726 614.1 -726 604.2 -726 594 C-724.02 594 -722.04 594 -720 594 C-720 586.08 -720 578.16 -720 570 C-718.02 570 -716.04 570 -714 570 C-714 560.1 -714 550.2 -714 540 C-712.02 540 -710.04 540 -708 540 C-708 530.1 -708 520.2 -708 510 C-706.02 510 -704.04 510 -702 510 C-702 502.08 -702 494.16 -702 486 C-700.02 486 -698.04 486 -696 486 C-696 476.1 -696 466.2 -696 456 C-694.02 456 -692.04 456 -690 456 C-690 448.08 -690 440.16 -690 432 C-688.02 432 -686.04 432 -684 432 C-684 422.1 -684 412.2 -684 402 C-682.02 402 -680.04 402 -678 402 C-678 392.1 -678 382.2 -678 372 C-676.02 372 -674.04 372 -672 372 C-672 364.08 -672 356.16 -672 348 C-670.02 348 -668.04 348 -666 348 C-666 338.1 -666 328.2 -666 318 C-664.02 318 -662.04 318 -660 318 C-660 308.1 -660 298.2 -660 288 C-658.02 288 -656.04 288 -654 288 C-654 280.08 -654 272.16 -654 264 C-652.02 264 -650.04 264 -648 264 C-648 258.06 -648 252.12 -648 246 C-630.18 246 -612.36 246 -594 246 C-594 224.22 -594 202.44 -594 180 C-421.74 180 -249.48 180 -72 180 C-72 164.16 -72 148.32 -72 132 C-52.2 132 -32.4 132 -12 132 C-12 96.36 -12 60.72 -12 24 C-8.04 24 -4.08 24 0 24 C0 16.08 0 8.16 0 0 Z " fill="#616566" transform="translate(2316,654)"/>
<path d="M0 0 C496.98 0 993.96 0 1506 0 C1506 21.78 1506 43.56 1506 66 C1026.84 66 547.68 66 54 66 C54 79.86 54 93.72 54 108 C34.2 108 14.4 108 -6 108 C-6 205.02 -6 302.04 -6 402 C-23.82 402 -41.64 402 -60 402 C-60 285.18 -60 168.36 -60 48 C-40.2 48 -20.4 48 0 48 C0 32.16 0 16.32 0 0 Z " fill="#EBEDEC" transform="translate(810,612)"/>
<path d="M0 0 C27.72 0 55.44 0 84 0 C84 3.96 84 7.92 84 12 C82.02 12 80.04 12 78 12 C78 21.9 78 31.8 78 42 C76.02 42 74.04 42 72 42 C72 49.92 72 57.84 72 66 C70.02 66 68.04 66 66 66 C66 75.9 66 85.8 66 96 C64.02 96 62.04 96 60 96 C60 105.9 60 115.8 60 126 C58.02 126 56.04 126 54 126 C54 135.9 54 145.8 54 156 C52.02 156 50.04 156 48 156 C48 165.9 48 175.8 48 186 C46.02 186 44.04 186 42 186 C42 195.9 42 205.8 42 216 C40.02 216 38.04 216 36 216 C36 225.9 36 235.8 36 246 C34.02 246 32.04 246 30 246 C30 253.92 30 261.84 30 270 C28.02 270 26.04 270 24 270 C24 279.9 24 289.8 24 300 C22.02 300 20.04 300 18 300 C18 309.9 18 319.8 18 330 C16.02 330 14.04 330 12 330 C12 339.9 12 349.8 12 360 C10.02 360 8.04 360 6 360 C6 369.9 6 379.8 6 390 C4.02 390 2.04 390 0 390 C0 399.9 0 409.8 0 420 C-1.98 420 -3.96 420 -6 420 C-6 429.9 -6 439.8 -6 450 C-7.98 450 -9.96 450 -12 450 C-12 457.92 -12 465.84 -12 474 C-13.98 474 -15.96 474 -18 474 C-18 483.9 -18 493.8 -18 504 C-19.98 504 -21.96 504 -24 504 C-24 513.9 -24 523.8 -24 534 C-25.98 534 -27.96 534 -30 534 C-30 543.9 -30 553.8 -30 564 C-31.98 564 -33.96 564 -36 564 C-36 573.9 -36 583.8 -36 594 C-37.98 594 -39.96 594 -42 594 C-42 603.9 -42 613.8 -42 624 C-43.98 624 -45.96 624 -48 624 C-48 633.9 -48 643.8 -48 654 C-49.98 654 -51.96 654 -54 654 C-54 661.92 -54 669.84 -54 678 C-55.98 678 -57.96 678 -60 678 C-60 687.9 -60 697.8 -60 708 C-61.98 708 -63.96 708 -66 708 C-66 717.9 -66 727.8 -66 738 C-67.98 738 -69.96 738 -72 738 C-72 747.9 -72 757.8 -72 768 C-73.98 768 -75.96 768 -78 768 C-78 777.9 -78 787.8 -78 798 C-79.98 798 -81.96 798 -84 798 C-84 807.9 -84 817.8 -84 828 C-85.98 828 -87.96 828 -90 828 C-90 837.9 -90 847.8 -90 858 C-91.98 858 -93.96 858 -96 858 C-96 865.92 -96 873.84 -96 882 C-97.98 882 -99.96 882 -102 882 C-102 891.9 -102 901.8 -102 912 C-103.98 912 -105.96 912 -108 912 C-108 921.9 -108 931.8 -108 942 C-109.98 942 -111.96 942 -114 942 C-114 951.9 -114 961.8 -114 972 C-115.98 972 -117.96 972 -120 972 C-120 981.9 -120 991.8 -120 1002 C-121.98 1002 -123.96 1002 -126 1002 C-126 1011.9 -126 1021.8 -126 1032 C-127.98 1032 -129.96 1032 -132 1032 C-132 1041.9 -132 1051.8 -132 1062 C-133.98 1062 -135.96 1062 -138 1062 C-138 1069.92 -138 1077.84 -138 1086 C-139.98 1086 -141.96 1086 -144 1086 C-144 1095.9 -144 1105.8 -144 1116 C-145.98 1116 -147.96 1116 -150 1116 C-150 1119.96 -150 1123.92 -150 1128 C-161.88 1128 -173.76 1128 -186 1128 C-186 1139.88 -186 1151.76 -186 1164 C-223.62 1164 -261.24 1164 -300 1164 C-300 1181.82 -300 1199.64 -300 1218 C-315.84 1218 -331.68 1218 -348 1218 C-348 1255.62 -348 1293.24 -348 1332 C-365.82 1332 -383.64 1332 -402 1332 C-402 1276.56 -402 1221.12 -402 1164 C-384.18 1164 -366.36 1164 -348 1164 C-348 1146.18 -348 1128.36 -348 1110 C-304.44 1110 -260.88 1110 -216 1110 C-216 1104.06 -216 1098.12 -216 1092 C-214.02 1092 -212.04 1092 -210 1092 C-210 1082.1 -210 1072.2 -210 1062 C-208.02 1062 -206.04 1062 -204 1062 C-204 1052.1 -204 1042.2 -204 1032 C-202.02 1032 -200.04 1032 -198 1032 C-198 1022.1 -198 1012.2 -198 1002 C-196.02 1002 -194.04 1002 -192 1002 C-192 992.1 -192 982.2 -192 972 C-190.02 972 -188.04 972 -186 972 C-186 962.1 -186 952.2 -186 942 C-184.02 942 -182.04 942 -180 942 C-180 932.1 -180 922.2 -180 912 C-178.02 912 -176.04 912 -174 912 C-174 902.1 -174 892.2 -174 882 C-172.02 882 -170.04 882 -168 882 C-168 872.1 -168 862.2 -168 852 C-166.02 852 -164.04 852 -162 852 C-162 842.1 -162 832.2 -162 822 C-160.02 822 -158.04 822 -156 822 C-156 812.1 -156 802.2 -156 792 C-154.02 792 -152.04 792 -150 792 C-150 782.1 -150 772.2 -150 762 C-148.02 762 -146.04 762 -144 762 C-144 752.1 -144 742.2 -144 732 C-142.02 732 -140.04 732 -138 732 C-138 722.1 -138 712.2 -138 702 C-136.02 702 -134.04 702 -132 702 C-132 692.1 -132 682.2 -132 672 C-130.02 672 -128.04 672 -126 672 C-126 662.1 -126 652.2 -126 642 C-124.02 642 -122.04 642 -120 642 C-120 632.1 -120 622.2 -120 612 C-118.02 612 -116.04 612 -114 612 C-114 602.1 -114 592.2 -114 582 C-112.02 582 -110.04 582 -108 582 C-108 572.1 -108 562.2 -108 552 C-106.02 552 -104.04 552 -102 552 C-102 542.1 -102 532.2 -102 522 C-100.02 522 -98.04 522 -96 522 C-96 512.1 -96 502.2 -96 492 C-94.02 492 -92.04 492 -90 492 C-90 482.1 -90 472.2 -90 462 C-88.02 462 -86.04 462 -84 462 C-84 452.1 -84 442.2 -84 432 C-82.02 432 -80.04 432 -78 432 C-78 422.1 -78 412.2 -78 402 C-76.02 402 -74.04 402 -72 402 C-72 392.1 -72 382.2 -72 372 C-70.02 372 -68.04 372 -66 372 C-66 362.1 -66 352.2 -66 342 C-64.02 342 -62.04 342 -60 342 C-60 332.1 -60 322.2 -60 312 C-58.02 312 -56.04 312 -54 312 C-54 302.1 -54 292.2 -54 282 C-52.02 282 -50.04 282 -48 282 C-48 272.1 -48 262.2 -48 252 C-46.02 252 -44.04 252 -42 252 C-42 242.1 -42 232.2 -42 222 C-40.02 222 -38.04 222 -36 222 C-36 212.1 -36 202.2 -36 192 C-34.02 192 -32.04 192 -30 192 C-30 182.1 -30 172.2 -30 162 C-28.02 162 -26.04 162 -24 162 C-24 152.1 -24 142.2 -24 132 C-22.02 132 -20.04 132 -18 132 C-18 122.1 -18 112.2 -18 102 C-16.02 102 -14.04 102 -12 102 C-12 92.1 -12 82.2 -12 72 C-10.02 72 -8.04 72 -6 72 C-6 60.12 -6 48.24 -6 36 C-4.02 36 -2.04 36 0 36 C0 24.12 0 12.24 0 0 Z " fill="#EAECEC" transform="translate(1188,900)"/>
<path d="M0 0 C120.78 0 241.56 0 366 0 C366 19.8 366 39.6 366 60 C265.02 60 164.04 60 60 60 C60 63.96 60 67.92 60 72 C58.02 72 56.04 72 54 72 C54 79.92 54 87.84 54 96 C52.02 96 50.04 96 48 96 C48 105.9 48 115.8 48 126 C46.02 126 44.04 126 42 126 C42 133.92 42 141.84 42 150 C40.02 150 38.04 150 36 150 C36 159.9 36 169.8 36 180 C34.02 180 32.04 180 30 180 C30 187.92 30 195.84 30 204 C28.02 204 26.04 204 24 204 C24 213.9 24 223.8 24 234 C22.02 234 20.04 234 18 234 C18 243.9 18 253.8 18 264 C16.02 264 14.04 264 12 264 C12 271.92 12 279.84 12 288 C10.02 288 8.04 288 6 288 C6 295.92 6 303.84 6 312 C4.02 312 2.04 312 0 312 C0 321.9 0 331.8 0 342 C-1.98 342 -3.96 342 -6 342 C-6 349.92 -6 357.84 -6 366 C-7.98 366 -9.96 366 -12 366 C-12 375.9 -12 385.8 -12 396 C-13.98 396 -15.96 396 -18 396 C-18 403.92 -18 411.84 -18 420 C-19.98 420 -21.96 420 -24 420 C-24 429.9 -24 439.8 -24 450 C-25.98 450 -27.96 450 -30 450 C-30 457.92 -30 465.84 -30 474 C-31.98 474 -33.96 474 -36 474 C-36 481.92 -36 489.84 -36 498 C-37.98 498 -39.96 498 -42 498 C-42 507.9 -42 517.8 -42 528 C-43.98 528 -45.96 528 -48 528 C-48 535.92 -48 543.84 -48 552 C-49.98 552 -51.96 552 -54 552 C-54 561.9 -54 571.8 -54 582 C-55.98 582 -57.96 582 -60 582 C-60 589.92 -60 597.84 -60 606 C-61.98 606 -63.96 606 -66 606 C-66 615.9 -66 625.8 -66 636 C-67.98 636 -69.96 636 -72 636 C-72 643.92 -72 651.84 -72 660 C-73.98 660 -75.96 660 -78 660 C-78 669.9 -78 679.8 -78 690 C-79.98 690 -81.96 690 -84 690 C-84 697.92 -84 705.84 -84 714 C-85.98 714 -87.96 714 -90 714 C-90 723.9 -90 733.8 -90 744 C-91.98 744 -93.96 744 -96 744 C-96 751.92 -96 759.84 -96 768 C-97.98 768 -99.96 768 -102 768 C-102 777.9 -102 787.8 -102 798 C-103.98 798 -105.96 798 -108 798 C-108 811.86 -108 825.72 -108 840 C-96.12 840 -84.24 840 -72 840 C-72 867.72 -72 895.44 -72 924 C-87.84 924 -103.68 924 -120 924 C-120 898.26 -120 872.52 -120 846 C-139.8 846 -159.6 846 -180 846 C-180 830.16 -180 814.32 -180 798 C-178.02 798 -176.04 798 -174 798 C-174 790.08 -174 782.16 -174 774 C-172.02 774 -170.04 774 -168 774 C-168 764.1 -168 754.2 -168 744 C-166.02 744 -164.04 744 -162 744 C-162 734.1 -162 724.2 -162 714 C-160.02 714 -158.04 714 -156 714 C-156 706.08 -156 698.16 -156 690 C-154.02 690 -152.04 690 -150 690 C-150 680.1 -150 670.2 -150 660 C-148.02 660 -146.04 660 -144 660 C-144 652.08 -144 644.16 -144 636 C-142.02 636 -140.04 636 -138 636 C-138 626.1 -138 616.2 -138 606 C-136.02 606 -134.04 606 -132 606 C-132 598.08 -132 590.16 -132 582 C-130.02 582 -128.04 582 -126 582 C-126 572.1 -126 562.2 -126 552 C-124.02 552 -122.04 552 -120 552 C-120 542.1 -120 532.2 -120 522 C-118.02 522 -116.04 522 -114 522 C-114 514.08 -114 506.16 -114 498 C-112.02 498 -110.04 498 -108 498 C-108 488.1 -108 478.2 -108 468 C-106.02 468 -104.04 468 -102 468 C-102 460.08 -102 452.16 -102 444 C-100.02 444 -98.04 444 -96 444 C-96 434.1 -96 424.2 -96 414 C-94.02 414 -92.04 414 -90 414 C-90 406.08 -90 398.16 -90 390 C-88.02 390 -86.04 390 -84 390 C-84 380.1 -84 370.2 -84 360 C-82.02 360 -80.04 360 -78 360 C-78 352.08 -78 344.16 -78 336 C-76.02 336 -74.04 336 -72 336 C-72 326.1 -72 316.2 -72 306 C-70.02 306 -68.04 306 -66 306 C-66 296.1 -66 286.2 -66 276 C-64.02 276 -62.04 276 -60 276 C-60 268.08 -60 260.16 -60 252 C-58.02 252 -56.04 252 -54 252 C-54 242.1 -54 232.2 -54 222 C-52.02 222 -50.04 222 -48 222 C-48 214.08 -48 206.16 -48 198 C-46.02 198 -44.04 198 -42 198 C-42 188.1 -42 178.2 -42 168 C-40.02 168 -38.04 168 -36 168 C-36 160.08 -36 152.16 -36 144 C-34.02 144 -32.04 144 -30 144 C-30 134.1 -30 124.2 -30 114 C-28.02 114 -26.04 114 -24 114 C-24 104.1 -24 94.2 -24 84 C-22.02 84 -20.04 84 -18 84 C-18 76.08 -18 68.16 -18 60 C-16.02 60 -14.04 60 -12 60 C-12 50.1 -12 40.2 -12 30 C-10.02 30 -8.04 30 -6 30 C-6 22.08 -6 14.16 -6 6 C-4.02 6 -2.04 6 0 6 C0 4.02 0 2.04 0 0 Z " fill="#18551C" transform="translate(1830,1020)"/>
<path d="M0 0 C21.78 0 43.56 0 66 0 C66 21.78 66 43.56 66 66 C46.2 66 26.4 66 6 66 C6 85.8 6 105.6 6 126 C-9.84 126 -25.68 126 -42 126 C-42 143.82 -42 161.64 -42 180 C-59.82 180 -77.64 180 -96 180 C-96 197.82 -96 215.64 -96 234 C-317.76 234 -539.52 234 -768 234 C-768 212.22 -768 190.44 -768 168 C-556.14 168 -344.28 168 -126 168 C-126 148.2 -126 128.4 -126 108 C-104.22 108 -82.44 108 -60 108 C-60 88.2 -60 68.4 -60 48 C-40.2 48 -20.4 48 0 48 C0 32.16 0 16.32 0 0 Z " fill="#616566" transform="translate(1608,2064)"/>
<path d="M0 0 C9.9 0 19.8 0 30 0 C30 13.86 30 27.72 30 42 C37.92 42 45.84 42 54 42 C54 125.16 54 208.32 54 294 C32.22 294 10.44 294 -12 294 C-12 315.78 -12 337.56 -12 360 C-31.8 360 -51.6 360 -72 360 C-72 377.82 -72 395.64 -72 414 C-91.8 414 -111.6 414 -132 414 C-132 429.84 -132 445.68 -132 462 C-147.84 462 -163.68 462 -180 462 C-180 477.84 -180 493.68 -180 510 C-253.26 510 -326.52 510 -402 510 C-402 525.84 -402 541.68 -402 558 C-390.12 558 -378.24 558 -366 558 C-366 577.8 -366 597.6 -366 618 C-383.82 618 -401.64 618 -420 618 C-420 598.2 -420 578.4 -420 558 C-439.8 558 -459.6 558 -480 558 C-480 540.18 -480 522.36 -480 504 C-497.82 504 -515.64 504 -534 504 C-534 488.16 -534 472.32 -534 456 C-425.1 456 -316.2 456 -204 456 C-204 444.12 -204 432.24 -204 420 C-190.14 420 -176.28 420 -162 420 C-162 400.2 -162 380.4 -162 360 C-144.18 360 -126.36 360 -108 360 C-108 340.2 -108 320.4 -108 300 C-90.18 300 -72.36 300 -54 300 C-54 280.2 -54 260.4 -54 240 C-36.18 240 -18.36 240 0 240 C0 160.8 0 81.6 0 0 Z " fill="#18551C" transform="translate(1794,1944)"/>
<path d="M0 0 C37.62 0 75.24 0 114 0 C114 19.8 114 39.6 114 60 C133.8 60 153.6 60 174 60 C174 79.8 174 99.6 174 120 C191.82 120 209.64 120 228 120 C228 139.8 228 159.6 228 180 C119.1 180 10.2 180 -102 180 C-102 160.2 -102 140.4 -102 120 C-84.18 120 -66.36 120 -48 120 C-48 100.2 -48 80.4 -48 60 C-32.16 60 -16.32 60 0 60 C0 40.2 0 20.4 0 0 Z " fill="#2B792D" transform="translate(1458,360)"/>
<path d="M0 0 C91.08 0 182.16 0 276 0 C276 23.76 276 47.52 276 72 C192.84 72 109.68 72 24 72 C24 85.86 24 99.72 24 114 C10.14 114 -3.72 114 -18 114 C-18 137.76 -18 161.52 -18 186 C-57.6 186 -97.2 186 -138 186 C-138 160.26 -138 134.52 -138 108 C-114.24 108 -90.48 108 -66 108 C-66 92.16 -66 76.32 -66 60 C-44.22 60 -22.44 60 0 60 C0 40.2 0 20.4 0 0 Z " fill="#616566" transform="translate(942,828)"/>
<path d="M0 0 C53.46 0 106.92 0 162 0 C162 15.84 162 31.68 162 48 C146.16 48 130.32 48 114 48 C114 71.76 114 95.52 114 120 C96.18 120 78.36 120 60 120 C60 98.22 60 76.44 60 54 C40.2 54 20.4 54 0 54 C0 36.18 0 18.36 0 0 Z " fill="#17541B" transform="translate(1428,2562)"/>
<path d="M0 0 C39.6 0 79.2 0 120 0 C120 11.88 120 23.76 120 36 C94.26 36 68.52 36 42 36 C42 51.84 42 67.68 42 84 C4.38 84 -33.24 84 -72 84 C-72 68.16 -72 52.32 -72 36 C-48.24 36 -24.48 36 0 36 C0 24.12 0 12.24 0 0 Z " fill="#EBEDEC" transform="translate(1554,1974)"/>
<path d="M0 0 C49.5 0 99 0 150 0 C150 17.82 150 35.64 150 54 C100.5 54 51 54 0 54 C0 36.18 0 18.36 0 0 Z " fill="#18551C" transform="translate(828,1140)"/>
<path d="M0 0 C19.8 0 39.6 0 60 0 C60 19.8 60 39.6 60 60 C42.18 60 24.36 60 6 60 C6 77.82 6 95.64 6 114 C-13.8 114 -33.6 114 -54 114 C-54 94.2 -54 74.4 -54 54 C-36.18 54 -18.36 54 0 54 C0 36.18 0 18.36 0 0 Z " fill="#549D4E" transform="translate(588,1308)"/>
<path d="M0 0 C37.62 0 75.24 0 114 0 C114 19.8 114 39.6 114 60 C76.38 60 38.76 60 0 60 C0 40.2 0 20.4 0 0 Z " fill="#489A48" transform="translate(1458,360)"/>
<path d="M0 0 C19.8 0 39.6 0 60 0 C60 25.74 60 51.48 60 78 C40.2 78 20.4 78 0 78 C0 52.26 0 26.52 0 0 Z " fill="#18551C" transform="translate(2598,1476)"/>
<path d="M0 0 C17.82 0 35.64 0 54 0 C54 25.74 54 51.48 54 78 C36.18 78 18.36 78 0 78 C0 52.26 0 26.52 0 0 Z " fill="#549D4E" transform="translate(420,1482)"/>
<path d="M0 0 C19.8 0 39.6 0 60 0 C60 19.8 60 39.6 60 60 C40.2 60 20.4 60 0 60 C0 40.2 0 20.4 0 0 Z " fill="#18551C" transform="translate(2142,1944)"/>
<path d="M0 0 C19.8 0 39.6 0 60 0 C60 19.8 60 39.6 60 60 C40.2 60 20.4 60 0 60 C0 40.2 0 20.4 0 0 Z " fill="#18551C" transform="translate(2256,1830)"/>
<path d="M0 0 C19.8 0 39.6 0 60 0 C60 19.8 60 39.6 60 60 C40.2 60 20.4 60 0 60 C0 40.2 0 20.4 0 0 Z " fill="#549D4E" transform="translate(474,1422)"/>
<path d="M0 0 C19.8 0 39.6 0 60 0 C60 19.8 60 39.6 60 60 C40.2 60 20.4 60 0 60 C0 40.2 0 20.4 0 0 Z " fill="#549D4E" transform="translate(648,1248)"/>
<path d="M0 0 C19.8 0 39.6 0 60 0 C60 19.8 60 39.6 60 60 C40.2 60 20.4 60 0 60 C0 40.2 0 20.4 0 0 Z " fill="#489A48" transform="translate(1572,420)"/>
<path d="M0 0 C19.8 0 39.6 0 60 0 C60 17.82 60 35.64 60 54 C40.2 54 20.4 54 0 54 C0 36.18 0 18.36 0 0 Z " fill="#18551C" transform="translate(1638,2442)"/>
<path d="M0 0 C19.8 0 39.6 0 60 0 C60 17.82 60 35.64 60 54 C40.2 54 20.4 54 0 54 C0 36.18 0 18.36 0 0 Z " fill="#18551C" transform="translate(1854,2226)"/>
<path d="M0 0 C19.8 0 39.6 0 60 0 C60 17.82 60 35.64 60 54 C40.2 54 20.4 54 0 54 C0 36.18 0 18.36 0 0 Z " fill="#18551C" transform="translate(1968,2118)"/>
<path d="M0 0 C17.82 0 35.64 0 54 0 C54 19.8 54 39.6 54 60 C36.18 60 18.36 60 0 60 C0 40.2 0 20.4 0 0 Z " fill="#18551C" transform="translate(2028,2058)"/>
<path d="M0 0 C19.8 0 39.6 0 60 0 C60 17.82 60 35.64 60 54 C40.2 54 20.4 54 0 54 C0 36.18 0 18.36 0 0 Z " fill="#18551C" transform="translate(2082,2004)"/>
<path d="M0 0 C19.8 0 39.6 0 60 0 C60 17.82 60 35.64 60 54 C40.2 54 20.4 54 0 54 C0 36.18 0 18.36 0 0 Z " fill="#18551C" transform="translate(750,1848)"/>
<path d="M0 0 C17.82 0 35.64 0 54 0 C54 19.8 54 39.6 54 60 C36.18 60 18.36 60 0 60 C0 40.2 0 20.4 0 0 Z " fill="#18551C" transform="translate(696,1788)"/>
<path d="M0 0 C17.82 0 35.64 0 54 0 C54 19.8 54 39.6 54 60 C36.18 60 18.36 60 0 60 C0 40.2 0 20.4 0 0 Z " fill="#18551C" transform="translate(642,1728)"/>
<path d="M0 0 C19.8 0 39.6 0 60 0 C60 17.82 60 35.64 60 54 C40.2 54 20.4 54 0 54 C0 36.18 0 18.36 0 0 Z " fill="#18551C" transform="translate(2370,1722)"/>
<path d="M0 0 C17.82 0 35.64 0 54 0 C54 19.8 54 39.6 54 60 C36.18 60 18.36 60 0 60 C0 40.2 0 20.4 0 0 Z " fill="#18551C" transform="translate(588,1668)"/>
<path d="M0 0 C17.82 0 35.64 0 54 0 C54 19.8 54 39.6 54 60 C36.18 60 18.36 60 0 60 C0 40.2 0 20.4 0 0 Z " fill="#18551C" transform="translate(2430,1662)"/>
<path d="M0 0 C17.82 0 35.64 0 54 0 C54 19.8 54 39.6 54 60 C36.18 60 18.36 60 0 60 C0 40.2 0 20.4 0 0 Z " fill="#18551C" transform="translate(534,1608)"/>
<path d="M0 0 C19.8 0 39.6 0 60 0 C60 17.82 60 35.64 60 54 C40.2 54 20.4 54 0 54 C0 36.18 0 18.36 0 0 Z " fill="#18551C" transform="translate(2538,1554)"/>
<path d="M0 0 C19.8 0 39.6 0 60 0 C60 17.82 60 35.64 60 54 C40.2 54 20.4 54 0 54 C0 36.18 0 18.36 0 0 Z " fill="#549D4E" transform="translate(708,1194)"/>
<path d="M0 0 C19.8 0 39.6 0 60 0 C60 17.82 60 35.64 60 54 C40.2 54 20.4 54 0 54 C0 36.18 0 18.36 0 0 Z " fill="#549D4E" transform="translate(768,1140)"/>
<path d="M0 0 C17.82 0 35.64 0 54 0 C54 19.8 54 39.6 54 60 C36.18 60 18.36 60 0 60 C0 40.2 0 20.4 0 0 Z " fill="#489A48" transform="translate(1632,480)"/>
<path d="M0 0 C17.82 0 35.64 0 54 0 C54 19.8 54 39.6 54 60 C36.18 60 18.36 60 0 60 C0 40.2 0 20.4 0 0 Z " fill="#489A48" transform="translate(1356,480)"/>
<path d="M0 0 C21.78 0 43.56 0 66 0 C66 15.84 66 31.68 66 48 C44.22 48 22.44 48 0 48 C0 32.16 0 16.32 0 0 Z " fill="#18551C" transform="translate(1698,2394)"/>
<path d="M0 0 C17.82 0 35.64 0 54 0 C54 17.82 54 35.64 54 54 C36.18 54 18.36 54 0 54 C0 36.18 0 18.36 0 0 Z " fill="#18551C" transform="translate(1764,2340)"/>
<path d="M0 0 C17.82 0 35.64 0 54 0 C54 17.82 54 35.64 54 54 C36.18 54 18.36 54 0 54 C0 36.18 0 18.36 0 0 Z " fill="#18551C" transform="translate(1914,2172)"/>
<path d="M0 0 C17.82 0 35.64 0 54 0 C54 17.82 54 35.64 54 54 C36.18 54 18.36 54 0 54 C0 36.18 0 18.36 0 0 Z " fill="#18551C" transform="translate(2202,1890)"/>
<path d="M0 0 C17.82 0 35.64 0 54 0 C54 17.82 54 35.64 54 54 C36.18 54 18.36 54 0 54 C0 36.18 0 18.36 0 0 Z " fill="#18551C" transform="translate(2316,1776)"/>
<path d="M0 0 C17.82 0 35.64 0 54 0 C54 17.82 54 35.64 54 54 C36.18 54 18.36 54 0 54 C0 36.18 0 18.36 0 0 Z " fill="#18551C" transform="translate(2484,1608)"/>
<path d="M0 0 C15.84 0 31.68 0 48 0 C48 19.8 48 39.6 48 60 C32.16 60 16.32 60 0 60 C0 40.2 0 20.4 0 0 Z " fill="#18541C" transform="translate(1590,2496)"/>
<path d="M0 0 C19.8 0 39.6 0 60 0 C60 15.84 60 31.68 60 48 C40.2 48 20.4 48 0 48 C0 32.16 0 16.32 0 0 Z " fill="#18551C" transform="translate(474,1560)"/>
<path d="M0 0 C15.84 0 31.68 0 48 0 C48 19.8 48 39.6 48 60 C32.16 60 16.32 60 0 60 C0 40.2 0 20.4 0 0 Z " fill="#489A48" transform="translate(1410,420)"/>
<path d="M0 0 C11.88 0 23.76 0 36 0 C36 19.8 36 39.6 36 60 C24.12 60 12.24 60 0 60 C0 40.2 0 20.4 0 0 Z " fill="#18551C" transform="translate(1818,2280)"/>
</svg>
